<svg xmlns="http://www.w3.org/2000/svg" xmlns:xlink="http://www.w3.org/1999/xlink" width="500" zoomAndPan="magnify" viewBox="0 0 375 374.999991" height="500" preserveAspectRatio="xMidYMid meet" version="1.0"><defs><g/></defs><g fill="#ffffff" fill-opacity="1"><g transform="translate(79.506389, 107.289368)"><g><path d="M 211.058594 43.035156 L 209.824219 35.410156 C 207.324219 20.914062 194.914062 10.070312 180.230469 9.375 L 115.019531 5.757812 L 98.753906 4.78125 L 0.917969 -0.269531 L 2.085938 7.128906 C 4.816406 21.554688 16.996094 32.464844 31.746094 33.390625 L 97.191406 36.941406 L 113.15625 37.757812 Z M 211.058594 43.035156 "/></g></g></g><g fill="#ffffff" fill-opacity="1"><g transform="translate(111.288924, 146.293137)"><g><path d="M 76.085938 0 C 71.332031 0 66.957031 2.472656 64.484375 6.65625 L 0 118.882812 L 5.707031 120.597656 C 16.929688 124.019531 28.914062 119.265625 34.808594 109.183594 L 76.085938 37.472656 L 117.171875 109.183594 C 123.070312 119.265625 135.050781 124.019531 146.273438 120.597656 L 152.171875 118.882812 L 87.5 6.65625 C 85.214844 2.472656 80.839844 0 76.085938 0 Z M 76.085938 0 "/></g></g></g></svg>