<svg xmlns="http://www.w3.org/2000/svg" xmlns:xlink="http://www.w3.org/1999/xlink" width="500" zoomAndPan="magnify" viewBox="0 0 375 374.999991" height="500" preserveAspectRatio="xMidYMid meet" version="1.0"><defs><g/></defs><g fill="#ffffff" fill-opacity="1"><g transform="translate(149.291885, 229.641742)"><g><path d="M 121.761719 -148.210938 C 122.039062 -150.476562 120.3125 -152.03125 118.800781 -152.214844 L 93.3125 -155.324219 C 91.613281 -155.53125 90.292969 -154.160156 89.285156 -152.175781 L 4.714844 39.859375 C 4.4375 42.125 6.1875 43.488281 7.886719 43.695312 L 33.191406 46.785156 C 34.699219 46.96875 36.183594 45.808594 37.191406 43.824219 Z M 121.761719 -148.210938 "/></g></g></g><g fill="#ffffff" fill-opacity="1"><g transform="translate(227.032564, 246.288521)"><g><path d="M 9.511719 -33.097656 C 9.511719 -31.386719 11.222656 -28.914062 13.125 -27.769531 L 75.894531 1.523438 C 78.179688 1.523438 79.320312 -0.378906 79.320312 -1.902344 L 79.320312 -26.25 C 79.320312 -27.769531 77.796875 -29.863281 75.894531 -31.003906 L 39.566406 -46.984375 L 75.894531 -62.960938 C 77.796875 -64.101562 79.320312 -66.195312 79.320312 -67.714844 L 79.320312 -92.0625 C 79.320312 -93.585938 78.179688 -95.488281 75.894531 -95.488281 L 13.125 -66.195312 C 11.222656 -65.054688 9.511719 -62.582031 9.511719 -60.867188 Z M 9.511719 -33.097656 "/></g></g></g><g fill="#bc1823" fill-opacity="1"><g transform="translate(143.885016, 255.784001)"><g><path d="M 3.894531 -7.699219 C 5.574219 -11.324219 4.796875 -15.273438 1.171875 -16.953125 C -5.980469 -20.269531 -8.652344 -9.925781 -12.785156 -11.839844 C -14.359375 -12.570312 -14.523438 -14.15625 -13.839844 -15.632812 C -13.214844 -16.976562 -12.050781 -17.90625 -10.492188 -18.28125 L -11.53125 -21.578125 C -13.699219 -21.035156 -15.789062 -19.433594 -16.894531 -17.050781 C -18.355469 -13.894531 -17.699219 -10.121094 -14.074219 -8.441406 C -7.394531 -5.34375 -4.617188 -15.640625 -0.355469 -13.664062 C 1.289062 -12.902344 1.625 -11.074219 0.753906 -9.195312 C -0.195312 -7.144531 -2.050781 -6.132812 -4.089844 -6.21875 L -3.6875 -2.605469 C -0.625 -2.613281 2.402344 -4.476562 3.894531 -7.699219 Z M 3.894531 -7.699219 "/></g></g></g><g fill="#bc1823" fill-opacity="1"><g transform="translate(150.950451, 240.543182)"><g><path d="M -8.339844 -17.203125 L -0.113281 -8.902344 L -11.824219 -9.683594 L -13.398438 -6.292969 L 2.835938 -5.496094 L 9.175781 1.316406 L 10.734375 -2.039062 L -6.75 -20.628906 Z M -8.339844 -17.203125 "/></g></g></g><g fill="#bc1823" fill-opacity="1"><g transform="translate(157.657943, 226.074481)"><g><path d="M -9.589844 -15.210938 C -10.210938 -13.871094 -10.199219 -12.398438 -9.648438 -11.039062 L -10.921875 -11.628906 L -12.402344 -8.441406 L 1.027344 -2.214844 L 2.503906 -5.40625 L -5.6875 -9.203125 C -7.128906 -9.871094 -7.707031 -11.527344 -7.023438 -13.003906 C -6.339844 -14.480469 -4.71875 -15.074219 -3.273438 -14.40625 L 4.917969 -10.609375 L 6.382812 -13.765625 L -2.144531 -17.71875 C -5.066406 -19.070312 -8.375 -17.832031 -9.589844 -15.210938 Z M -9.589844 -15.210938 "/></g></g></g><g fill="#bc1823" fill-opacity="1"><g transform="translate(164.956817, 210.330114)"><g><path d="M -6.417969 -14.3125 L -9.101562 -15.558594 L -10.671875 -12.167969 L -16.179688 -14.71875 L -17.65625 -11.53125 L -12.152344 -8.976562 L -13.179688 -6.761719 L -10.492188 -5.515625 L -9.464844 -7.734375 L -2.886719 -4.683594 C -0.402344 -3.53125 2.523438 -4.742188 3.660156 -7.195312 C 4.019531 -7.964844 4.207031 -8.898438 4.128906 -9.34375 L 1.675781 -10.480469 L 0.960938 -8.933594 C 0.492188 -7.929688 -0.601562 -7.5 -1.777344 -8.042969 L -7.988281 -10.921875 Z M -6.417969 -14.3125 "/></g></g></g><g fill="#bc1823" fill-opacity="1"><g transform="translate(169.687858, 200.124806)"><g><path d="M 5.195312 -18.066406 C 4.898438 -17.429688 4.28125 -16.980469 3.109375 -17.523438 L -6.191406 -21.835938 L -7.671875 -18.648438 L -6.261719 -17.992188 C -7.828125 -17.332031 -9.152344 -16.152344 -9.945312 -14.441406 C -11.703125 -10.648438 -10.015625 -6.195312 -6.121094 -4.386719 C -2.230469 -2.582031 2.261719 -4.171875 4.019531 -7.964844 C 4.921875 -9.914062 4.84375 -12.03125 3.996094 -13.808594 C 5.648438 -13.859375 7.164062 -14.746094 7.925781 -16.390625 C 8.113281 -16.796875 8.183594 -17.210938 8.15625 -17.589844 L 5.535156 -18.804688 Z M 1.25 -9.738281 C 0.210938 -7.488281 -2.394531 -6.535156 -4.644531 -7.578125 C -6.894531 -8.621094 -7.847656 -11.222656 -6.804688 -13.472656 C -5.777344 -15.6875 -3.160156 -16.675781 -0.910156 -15.632812 C 1.339844 -14.59375 2.277344 -11.953125 1.25 -9.738281 Z M 1.25 -9.738281 "/></g></g></g><g fill="#bc1823" fill-opacity="1"><g transform="translate(178.060551, 182.064107)"><g><path d="M -6.410156 -21.367188 L -8.167969 -17.574219 L -5.429688 -11.777344 L -11.640625 -10.085938 L -13.398438 -6.292969 L -4.070312 -8.820312 L 0.03125 -0.0664062 L 1.804688 -3.894531 L -0.898438 -9.675781 L 5.246094 -11.3125 L 7.019531 -15.140625 L -2.308594 -12.613281 Z M -6.410156 -21.367188 "/></g></g></g><g fill="#bc1823" fill-opacity="1"><g transform="translate(185.11042, 166.856867)"><g/></g></g><g fill="#bc1823" fill-opacity="1"><g transform="translate(188.845454, 158.800043)"><g><path d="M -10.695312 -21.886719 L -13.683594 -23.269531 L -19.039062 -11.722656 L 1.105469 -2.382812 L 6.457031 -13.933594 L 3.472656 -15.316406 L -0.359375 -7.058594 L -5.929688 -9.640625 L -2.617188 -16.792969 L -5.636719 -18.195312 L -8.953125 -11.042969 L -14.523438 -13.625 Z M -10.695312 -21.886719 "/></g></g></g><g fill="#bc1823" fill-opacity="1"><g transform="translate(196.097638, 143.156388)"><g><path d="M -9.277344 -15.882812 C -10.085938 -14.136719 -9.949219 -12.320312 -9.078125 -10.773438 L -10.921875 -11.628906 L -12.402344 -8.441406 L 1.027344 -2.214844 L 2.503906 -5.40625 L -4.308594 -8.5625 C -6.660156 -9.652344 -7.429688 -12.128906 -6.355469 -14.445312 C -6.152344 -14.882812 -5.914062 -15.222656 -5.691406 -15.527344 L -8.679688 -16.910156 C -8.902344 -16.605469 -9.105469 -16.253906 -9.277344 -15.882812 Z M -9.277344 -15.882812 "/></g></g></g><g fill="#bc1823" fill-opacity="1"><g transform="translate(201.030991, 132.514675)"><g><path d="M -9.277344 -15.882812 C -10.085938 -14.136719 -9.949219 -12.320312 -9.078125 -10.773438 L -10.921875 -11.628906 L -12.402344 -8.441406 L 1.027344 -2.214844 L 2.503906 -5.40625 L -4.308594 -8.5625 C -6.660156 -9.652344 -7.429688 -12.128906 -6.355469 -14.445312 C -6.152344 -14.882812 -5.914062 -15.222656 -5.691406 -15.527344 L -8.679688 -16.910156 C -8.902344 -16.605469 -9.105469 -16.253906 -9.277344 -15.882812 Z M -9.277344 -15.882812 "/></g></g></g><g fill="#bc1823" fill-opacity="1"><g transform="translate(205.964344, 121.872962)"><g><path d="M 4.207031 -8.367188 C 6.136719 -12.53125 4.496094 -17.003906 0.570312 -18.824219 C -3.359375 -20.644531 -7.828125 -19.007812 -9.757812 -14.84375 C -11.6875 -10.679688 -10.050781 -6.210938 -6.121094 -4.386719 C -2.195312 -2.566406 2.277344 -4.207031 4.207031 -8.367188 Z M 1.25 -9.738281 C 0.195312 -7.457031 -2.394531 -6.535156 -4.644531 -7.578125 C -6.894531 -8.621094 -7.863281 -11.191406 -6.804688 -13.472656 C -5.761719 -15.722656 -3.160156 -16.675781 -0.910156 -15.632812 C 1.339844 -14.59375 2.292969 -11.988281 1.25 -9.738281 Z M 1.25 -9.738281 "/></g></g></g><g fill="#bc1823" fill-opacity="1"><g transform="translate(213.839032, 104.886506)"><g><path d="M -9.277344 -15.882812 C -10.085938 -14.136719 -9.949219 -12.320312 -9.078125 -10.773438 L -10.921875 -11.628906 L -12.402344 -8.441406 L 1.027344 -2.214844 L 2.503906 -5.40625 L -4.308594 -8.5625 C -6.660156 -9.652344 -7.429688 -12.128906 -6.355469 -14.445312 C -6.152344 -14.882812 -5.914062 -15.222656 -5.691406 -15.527344 L -8.679688 -16.910156 C -8.902344 -16.605469 -9.105469 -16.253906 -9.277344 -15.882812 Z M -9.277344 -15.882812 "/></g></g></g><g fill="#bc1823" fill-opacity="1"><g transform="translate(218.772385, 94.244794)"><g><path d="M -4.867188 -6.128906 L -3.746094 -8.546875 L -18.882812 -16.015625 L -20.347656 -12.859375 Z M 2.308594 -4.273438 C 2.789062 -5.3125 2.320312 -6.589844 1.28125 -7.074219 C 0.238281 -7.554688 -1.003906 -7.074219 -1.484375 -6.03125 C -1.96875 -4.992188 -1.519531 -3.761719 -0.476562 -3.28125 C 0.5625 -2.796875 1.824219 -3.234375 2.308594 -4.273438 Z M 2.308594 -4.273438 "/></g></g></g><g fill="#bc1823" fill-opacity="1"><g transform="translate(222.865357, 85.415863)"><g><path d="M -4.867188 -6.128906 L -3.746094 -8.546875 L -18.882812 -16.015625 L -20.347656 -12.859375 Z M 2.308594 -4.273438 C 2.789062 -5.3125 2.320312 -6.589844 1.28125 -7.074219 C 0.238281 -7.554688 -1.003906 -7.074219 -1.484375 -6.03125 C -1.96875 -4.992188 -1.519531 -3.761719 -0.476562 -3.28125 C 0.5625 -2.796875 1.824219 -3.234375 2.308594 -4.273438 Z M 2.308594 -4.273438 "/></g></g></g><g fill="#ffffff" fill-opacity="1"><g transform="translate(147.967128, 151.031181)"><g><path d="M -9.511719 33.097656 C -9.511719 31.386719 -11.222656 28.914062 -13.125 27.769531 L -75.894531 -1.523438 C -78.179688 -1.523438 -79.320312 0.378906 -79.320312 1.902344 L -79.320312 26.25 C -79.320312 27.769531 -77.796875 29.863281 -75.894531 31.003906 L -39.566406 46.984375 L -75.894531 62.960938 C -77.796875 64.101562 -79.320312 66.195312 -79.320312 67.714844 L -79.320312 92.0625 C -79.320312 93.585938 -78.179688 95.488281 -75.894531 95.488281 L -13.125 66.195312 C -11.222656 65.054688 -9.511719 62.582031 -9.511719 60.867188 Z M -9.511719 33.097656 "/></g></g></g></svg>